<svg width="48" height="48" viewBox="0 0 48 48" fill="none" xmlns="http://www.w3.org/2000/svg">
<circle cx="24" cy="24" r="24" fill="#DFEDE3"/>
<path d="M26.8277 30.2197H18.0377C17.5177 30.2197 17.0277 30.1698 16.5877 30.0698C16.3577 30.0398 16.0777 29.9597 15.7877 29.8497C14.4577 29.3497 12.8877 28.1198 12.8877 25.0598V19.9097C12.8877 16.6397 14.7677 14.7598 18.0377 14.7598H26.8277C29.5877 14.7598 31.3677 16.0797 31.8477 18.4797C31.9377 18.9197 31.9777 19.3897 31.9777 19.9097V25.0598C31.9777 28.3498 30.1077 30.2197 26.8277 30.2197ZM18.0477 16.2798C15.5877 16.2798 14.3977 17.4697 14.3977 19.9297V25.0798C14.3977 26.8698 15.0277 27.9698 16.3177 28.4598C16.5177 28.5298 16.7077 28.5797 16.8877 28.6097C17.2677 28.6897 17.6377 28.7297 18.0477 28.7297H26.8377C29.2977 28.7297 30.4877 27.5398 30.4877 25.0798V19.9297C30.4877 19.5097 30.4577 19.1397 30.3877 18.7997C30.0477 17.0997 28.8877 16.2798 26.8377 16.2798H18.0477Z" fill="#0F4E23"/>
<path d="M29.8276 33.2198H21.0376C20.1876 33.2198 19.4276 33.0998 18.7776 32.8498C17.3076 32.2998 16.3476 31.1398 16.0176 29.4798C15.9676 29.2298 16.0476 28.9698 16.2276 28.7998C16.4076 28.6198 16.6676 28.5498 16.9176 28.6098C17.2476 28.6798 17.6176 28.7198 18.0376 28.7198H26.8276C29.2876 28.7198 30.4776 27.5299 30.4776 25.0699V19.9198C30.4776 19.4998 30.4476 19.1298 30.3776 18.7898C30.3276 18.5398 30.4076 18.2898 30.5776 18.1098C30.7576 17.9298 31.0076 17.8498 31.2576 17.9098C33.6576 18.3998 34.9776 20.1798 34.9776 22.9198V28.0699C34.9776 31.3499 33.1076 33.2198 29.8276 33.2198ZM17.8576 30.2198C18.1776 30.7998 18.6576 31.2099 19.3176 31.4499C19.7976 31.6299 20.3776 31.7198 21.0476 31.7198H29.8376C32.2976 31.7198 33.4876 30.5299 33.4876 28.0699V22.9198C33.4876 21.3398 32.9976 20.2899 31.9876 19.7399C31.9876 19.7999 31.9876 19.8598 31.9876 19.9198V25.0699C31.9876 28.3399 30.1076 30.2198 26.8376 30.2198H18.0476C17.9776 30.2198 17.9176 30.2198 17.8576 30.2198Z" fill="#0F4E23"/>
<path d="M22.4374 25.8899C20.5674 25.8899 19.0474 24.3699 19.0474 22.4999C19.0474 20.6299 20.5674 19.1099 22.4374 19.1099C24.3074 19.1099 25.8274 20.6299 25.8274 22.4999C25.8274 24.3699 24.3074 25.8899 22.4374 25.8899ZM22.4374 20.6099C21.3974 20.6099 20.5474 21.4599 20.5474 22.4999C20.5474 23.5399 21.3974 24.3899 22.4374 24.3899C23.4774 24.3899 24.3274 23.5399 24.3274 22.4999C24.3274 21.4599 23.4774 20.6099 22.4374 20.6099Z" fill="#0F4E23"/>
<path d="M16.7178 25.4498C16.3078 25.4498 15.9678 25.1098 15.9678 24.6998V20.2998C15.9678 19.8898 16.3078 19.5498 16.7178 19.5498C17.1278 19.5498 17.4678 19.8898 17.4678 20.2998V24.6998C17.4678 25.1098 17.1378 25.4498 16.7178 25.4498Z" fill="#0F4E23"/>
<path d="M28.1475 25.4498C27.7375 25.4498 27.3975 25.1098 27.3975 24.6998V20.2998C27.3975 19.8898 27.7375 19.5498 28.1475 19.5498C28.5575 19.5498 28.8975 19.8898 28.8975 20.2998V24.6998C28.8975 25.1098 28.5675 25.4498 28.1475 25.4498Z" fill="#0F4E23"/>
</svg>
