<svg width="32" height="32" viewBox="0 0 32 32" fill="none" xmlns="http://www.w3.org/2000/svg">
<circle cx="16" cy="16" r="16" fill="#0F4E23"/>
<path fill-rule="evenodd" clip-rule="evenodd" d="M13.9911 10.716C13.9008 10.2944 13.2992 10.2944 13.2089 10.716L12.2533 15.1755C12.0161 16.2821 11.0382 17.0727 9.90653 17.0727H8.8C8.35817 17.0727 8 16.7145 8 16.2727C8 15.8308 8.35817 15.4727 8.8 15.4727H9.90653C10.2838 15.4727 10.6097 15.2092 10.6888 14.8403L11.6444 10.3807C12.0961 8.27283 15.1039 8.27281 15.5556 10.3807L18.0089 21.8294C18.0992 22.2509 18.7008 22.2509 18.7911 21.8294L19.7467 17.3698C19.9839 16.2632 20.9618 15.4727 22.0935 15.4727H23.2C23.6418 15.4727 24 15.8308 24 16.2727C24 16.7145 23.6418 17.0727 23.2 17.0727H22.0935C21.7162 17.0727 21.3903 17.3362 21.3112 17.7051L20.3556 22.1646C19.9039 24.2725 16.8961 24.2725 16.4444 22.1646L13.9911 10.716Z" fill="white"/>
</svg>
