<svg width="48" height="48" viewBox="0 0 48 48" fill="none" xmlns="http://www.w3.org/2000/svg">
<circle cx="24" cy="24" r="24" fill="#DFEDE3"/>
<path d="M27.115 21.25H13.875C13.465 21.25 13.125 20.91 13.125 20.5C13.125 20.09 13.465 19.75 13.875 19.75H27.115C27.525 19.75 27.865 20.09 27.865 20.5C27.865 20.91 27.525 21.25 27.115 21.25Z" fill="#0F4E23"/>
<path d="M19.165 29.25H17.875C17.465 29.25 17.125 28.91 17.125 28.5C17.125 28.09 17.465 27.75 17.875 27.75H19.165C19.575 27.75 19.915 28.09 19.915 28.5C19.915 28.91 19.585 29.25 19.165 29.25Z" fill="#0F4E23"/>
<path d="M26.375 29.25H22.875C22.465 29.25 22.125 28.91 22.125 28.5C22.125 28.09 22.465 27.75 22.875 27.75H26.375C26.785 27.75 27.125 28.09 27.125 28.5C27.125 28.91 26.785 29.25 26.375 29.25Z" fill="#0F4E23"/>
<path d="M29.435 33.2501H19.855C19.445 33.2501 19.105 32.9101 19.105 32.5001C19.105 32.0901 19.445 31.7501 19.855 31.7501H29.435C32.575 31.7501 33.125 31.2101 33.125 28.1101V18.8901C33.125 18.4801 33.465 18.1401 33.875 18.1401C34.285 18.1401 34.625 18.4801 34.625 18.8901V28.1001C34.625 32.0501 33.415 33.2501 29.435 33.2501Z" fill="#0F4E23"/>
<path d="M15.585 32.89C15.495 32.89 15.395 32.87 15.305 32.84C13.495 32.12 13.125 30.43 13.125 28.11V19.89C13.125 15.95 14.335 14.75 18.315 14.75H29.425C30.565 14.75 31.405 14.84 32.065 15.04C32.465 15.16 32.685 15.57 32.575 15.97C32.455 16.37 32.035 16.59 31.645 16.48C31.125 16.33 30.425 16.26 29.425 16.26H18.315C15.175 16.26 14.625 16.8 14.625 19.9V28.11C14.625 30.5 15.055 31.13 15.865 31.45C16.255 31.6 16.435 32.04 16.285 32.42C16.165 32.71 15.885 32.89 15.585 32.89Z" fill="#0F4E23"/>
<path d="M13.8749 34.7499C13.6849 34.7499 13.4949 34.6799 13.3449 34.5299C13.0549 34.2399 13.0549 33.7599 13.3449 33.4699L33.3449 13.4699C33.6349 13.1799 34.1149 13.1799 34.4049 13.4699C34.6949 13.7599 34.6949 14.2399 34.4049 14.5299L14.4049 34.5299C14.2549 34.6799 14.0649 34.7499 13.8749 34.7499Z" fill="#0F4E23"/>
</svg>
