<svg width="56" height="56" viewBox="0 0 56 56" fill="none" xmlns="http://www.w3.org/2000/svg">
<circle cx="28" cy="28" r="28" fill="#E0F0E5"/>
<path d="M39.6666 30.2664H11.3333C10.6499 30.2664 10.0833 29.6997 10.0833 29.0164C10.0833 28.333 10.6499 27.7664 11.3333 27.7664H39.6666C40.3499 27.7664 40.9166 28.333 40.9166 29.0164C40.9166 29.6997 40.3499 30.2664 39.6666 30.2664Z" fill="#0F4E23"/>
<path d="M33.3665 44.2501H17.6333C11.9166 44.2501 10.0833 42.4334 10.0833 36.7834V25.1334C10.0833 20.6501 11.1 18.0001 16.2666 17.7001C16.7 17.6834 17.15 17.6667 17.6333 17.6667H33.3665C39.0832 17.6667 40.9166 19.4834 40.9166 25.1334V37.0501C40.8499 42.5001 39.0165 44.2501 33.3665 44.2501ZM17.6333 20.1667C17.1833 20.1667 16.7666 20.1834 16.3833 20.2001C13.4 20.3834 12.5833 21.0167 12.5833 25.1334V36.7834C12.5833 41.0501 13.2833 41.7501 17.6333 41.7501H33.3665C37.6665 41.7501 38.3666 41.0834 38.4166 37.0334V25.1334C38.4166 20.8667 37.7165 20.1667 33.3665 20.1667H17.6333Z" fill="#0F4E23"/>
<path d="M39.6666 38.3C39.3499 38.3 39.0332 38.1833 38.8166 37.9667C38.5666 37.7333 38.4166 37.4 38.4166 37.05V25.1333C38.4166 20.8667 37.7165 20.1667 33.3665 20.1667H17.6333C17.1833 20.1667 16.7666 20.1833 16.3833 20.2C16.05 20.2167 15.7166 20.0833 15.4666 19.85C15.2166 19.6167 15.0833 19.2833 15.0833 18.9333C15.1499 13.5 16.9833 11.75 22.6333 11.75H38.3665C44.0832 11.75 45.9166 13.5667 45.9166 19.2167V30.8667C45.9166 35.35 44.8999 38 39.7332 38.3C39.7165 38.3 39.6833 38.3 39.6666 38.3ZM17.6333 17.6667H33.3665C39.0832 17.6667 40.9166 19.4833 40.9166 25.1333V35.6667C42.8499 35.3167 43.4166 34.3167 43.4166 30.8667V19.2167C43.4166 14.95 42.7165 14.25 38.3665 14.25H22.6333C18.8333 14.25 17.85 14.7667 17.6333 17.6667Z" fill="#0F4E23"/>
<path d="M19.6004 38.9333H16.7336C16.0503 38.9333 15.4836 38.3667 15.4836 37.6833C15.4836 37 16.0503 36.4333 16.7336 36.4333H19.6004C20.2837 36.4333 20.8504 37 20.8504 37.6833C20.8504 38.3667 20.3004 38.9333 19.6004 38.9333Z" fill="#0F4E23"/>
<path d="M28.9164 38.9333H23.1831C22.4998 38.9333 21.9331 38.3667 21.9331 37.6833C21.9331 37 22.4998 36.4333 23.1831 36.4333H28.9164C29.5998 36.4333 30.1664 37 30.1664 37.6833C30.1664 38.3667 29.6164 38.9333 28.9164 38.9333Z" fill="#0F4E23"/>
</svg>
