<svg width="48" height="48" viewBox="0 0 48 48" fill="none" xmlns="http://www.w3.org/2000/svg">
<circle cx="24" cy="24" r="24" fill="#DFEDE3"/>
<path d="M25.375 21.25H13.875C13.465 21.25 13.125 20.91 13.125 20.5C13.125 20.09 13.465 19.75 13.875 19.75H25.375C25.785 19.75 26.125 20.09 26.125 20.5C26.125 20.91 25.785 21.25 25.375 21.25Z" fill="#0F4E23"/>
<path d="M19.875 29.25H17.875C17.465 29.25 17.125 28.91 17.125 28.5C17.125 28.09 17.465 27.75 17.875 27.75H19.875C20.285 27.75 20.625 28.09 20.625 28.5C20.625 28.91 20.285 29.25 19.875 29.25Z" fill="#0F4E23"/>
<path d="M26.375 29.25H22.375C21.965 29.25 21.625 28.91 21.625 28.5C21.625 28.09 21.965 27.75 22.375 27.75H26.375C26.785 27.75 27.125 28.09 27.125 28.5C27.125 28.91 26.785 29.25 26.375 29.25Z" fill="#0F4E23"/>
<path d="M29.435 33.25H18.315C14.335 33.25 13.125 32.05 13.125 28.11V19.89C13.125 15.95 14.335 14.75 18.315 14.75H25.375C25.785 14.75 26.125 15.09 26.125 15.5C26.125 15.91 25.785 16.25 25.375 16.25H18.315C15.175 16.25 14.625 16.79 14.625 19.89V28.1C14.625 31.2 15.175 31.74 18.315 31.74H29.425C32.565 31.74 33.115 31.2 33.115 28.1V24.02C33.115 23.61 33.455 23.27 33.865 23.27C34.275 23.27 34.615 23.61 34.615 24.02V28.1C34.625 32.05 33.415 33.25 29.435 33.25Z" fill="#0F4E23"/>
<path d="M33.875 19H28.375C27.965 19 27.625 18.66 27.625 18.25C27.625 17.84 27.965 17.5 28.375 17.5H33.875C34.285 17.5 34.625 17.84 34.625 18.25C34.625 18.66 34.285 19 33.875 19Z" fill="#0F4E23"/>
<path d="M31.125 21.75C30.715 21.75 30.375 21.41 30.375 21V15.5C30.375 15.09 30.715 14.75 31.125 14.75C31.535 14.75 31.875 15.09 31.875 15.5V21C31.875 21.41 31.535 21.75 31.125 21.75Z" fill="#0F4E23"/>
</svg>
