<svg width="40" height="40" viewBox="0 0 40 40" fill="none" xmlns="http://www.w3.org/2000/svg">
<g clip-path="url(#clip0_1_44192)">
<path d="M31.6667 15H15.0001C13.1591 15 11.6667 16.4924 11.6667 18.3333V28.3333C11.6667 30.1743 13.1591 31.6667 15.0001 31.6667H31.6667C33.5077 31.6667 35.0001 30.1743 35.0001 28.3333V18.3333C35.0001 16.4924 33.5077 15 31.6667 15Z" stroke="#0F4E23" stroke-width="2" stroke-linecap="round" stroke-linejoin="round"/>
<path d="M23.3333 26.6667C25.1743 26.6667 26.6667 25.1743 26.6667 23.3333C26.6667 21.4924 25.1743 20 23.3333 20C21.4924 20 20 21.4924 20 23.3333C20 25.1743 21.4924 26.6667 23.3333 26.6667Z" stroke="#0F4E23" stroke-width="2" stroke-linecap="round" stroke-linejoin="round"/>
<path d="M28.3333 14.9999V11.6666C28.3333 10.7825 27.9821 9.93468 27.357 9.30956C26.7319 8.68444 25.8841 8.33325 25 8.33325H8.33333C7.44928 8.33325 6.60143 8.68444 5.97631 9.30956C5.35119 9.93468 5 10.7825 5 11.6666V21.6666C5 22.5506 5.35119 23.3985 5.97631 24.0236C6.60143 24.6487 7.44928 24.9999 8.33333 24.9999H11.6667" stroke="#0F4E23" stroke-width="2" stroke-linecap="round" stroke-linejoin="round"/>
</g>
<defs>
<clipPath id="clip0_1_44192">
<rect width="40" height="40" fill="white"/>
</clipPath>
</defs>
</svg>
