<svg width="28" height="28" viewBox="0 0 28 28" fill="none" xmlns="http://www.w3.org/2000/svg">
<circle cx="14" cy="14" r="14" fill="#E0F0E5"/>
<path d="M21.6335 9.28939C21.5276 9.19769 21.4017 9.12491 21.263 9.07524C21.1243 9.02557 20.9755 9 20.8252 9C20.6749 9 20.5261 9.02557 20.3873 9.07524C20.2486 9.12491 20.1227 9.19769 20.0168 9.28939L11.5352 16.5877L7.97176 13.5157C7.86187 13.4245 7.73215 13.3528 7.59 13.3047C7.44786 13.2565 7.29607 13.2329 7.14331 13.2352C6.99055 13.2375 6.8398 13.2656 6.69968 13.3179C6.55956 13.3702 6.4328 13.4458 6.32665 13.5402C6.2205 13.6346 6.13704 13.7461 6.08102 13.8682C6.025 13.9904 5.99753 14.1208 6.00017 14.2521C6.00282 14.3834 6.03552 14.5129 6.09642 14.6333C6.15733 14.7537 6.24523 14.8626 6.35512 14.9539L10.7269 18.7106C10.8327 18.8023 10.9586 18.8751 11.0974 18.9248C11.2361 18.9744 11.3849 19 11.5352 19C11.6855 19 11.8343 18.9744 11.973 18.9248C12.1118 18.8751 12.2377 18.8023 12.3435 18.7106L21.6335 10.7275C21.749 10.6359 21.8413 10.5247 21.9044 10.401C21.9674 10.2772 22 10.1436 22 10.0085C22 9.87334 21.9674 9.7397 21.9044 9.61594C21.8413 9.49219 21.749 9.381 21.6335 9.28939Z" fill="#0F4E23"/>
</svg>
