<svg width="48" height="48" viewBox="0 0 48 48" fill="none" xmlns="http://www.w3.org/2000/svg">
<circle cx="24" cy="24" r="24" fill="#DFEDE3"/>
<path d="M33.9375 22.75H13.9375C13.5275 22.75 13.1875 22.41 13.1875 22C13.1875 21.59 13.5275 21.25 13.9375 21.25H33.9375C34.3475 21.25 34.6875 21.59 34.6875 22C34.6875 22.41 34.3475 22.75 33.9375 22.75Z" fill="#0F4E23"/>
<path d="M23.4877 33.2498H18.3777C14.3977 33.2498 13.1777 32.0498 13.1777 28.1098V19.8898C13.1777 16.7398 13.8477 14.9898 17.4177 14.7798C17.7177 14.7698 18.0377 14.7598 18.3777 14.7598H29.4877C33.4677 14.7598 34.6877 15.9598 34.6877 19.8998V24.3098C34.6877 24.7198 34.3477 25.0598 33.9377 25.0598C33.5277 25.0598 33.1877 24.7198 33.1877 24.3098V19.8998C33.1877 16.8098 32.6377 16.2598 29.4877 16.2598H18.3777C18.0577 16.2598 17.7677 16.2698 17.4877 16.2798C15.3177 16.4098 14.6777 16.8998 14.6777 19.8998V28.1198C14.6777 31.2098 15.2277 31.7598 18.3777 31.7598H23.4877C23.8977 31.7598 24.2377 32.0998 24.2377 32.5098C24.2377 32.9198 23.9077 33.2498 23.4877 33.2498Z" fill="#0F4E23"/>
<path d="M21.9375 28.75H17.9375C17.5275 28.75 17.1875 28.41 17.1875 28C17.1875 27.59 17.5275 27.25 17.9375 27.25H21.9375C22.3475 27.25 22.6875 27.59 22.6875 28C22.6875 28.41 22.3475 28.75 21.9375 28.75Z" fill="#0F4E23"/>
<path d="M29.9375 34.75C28.2775 34.75 26.7175 33.87 25.8775 32.44C25.4275 31.72 25.1875 30.87 25.1875 30C25.1875 27.38 27.3175 25.25 29.9375 25.25C32.5575 25.25 34.6875 27.38 34.6875 30C34.6875 30.87 34.4475 31.72 33.9975 32.45C33.1575 33.87 31.5975 34.75 29.9375 34.75ZM29.9375 26.75C28.1475 26.75 26.6875 28.21 26.6875 30C26.6875 30.59 26.8475 31.17 27.1575 31.67C27.7375 32.65 28.8075 33.25 29.9375 33.25C31.0675 33.25 32.1375 32.65 32.7175 31.68C33.0275 31.17 33.1875 30.6 33.1875 30C33.1875 28.21 31.7275 26.75 29.9375 26.75Z" fill="#0F4E23"/>
<path d="M29.3674 31.7401C29.1774 31.7401 28.9874 31.6701 28.8374 31.5201L27.8474 30.5301C27.5574 30.2401 27.5574 29.7601 27.8474 29.4701C28.1374 29.1801 28.6174 29.1801 28.9074 29.4701L29.3874 29.9501L30.9874 28.4701C31.2874 28.1901 31.7674 28.2101 32.0474 28.5101C32.3274 28.8101 32.3074 29.2901 32.0074 29.5701L29.8774 31.54C29.7274 31.67 29.5474 31.7401 29.3674 31.7401Z" fill="#0F4E23"/>
</svg>
