<svg width="82" height="23" viewBox="0 0 82 23" fill="none" xmlns="http://www.w3.org/2000/svg">
<path d="M9.59766 13.2188C9.59766 12.9141 9.55078 12.6406 9.45703 12.3984C9.37109 12.1484 9.20703 11.9219 8.96484 11.7188C8.72266 11.5078 8.38281 11.3008 7.94531 11.0977C7.50781 10.8945 6.94141 10.6836 6.24609 10.4648C5.47266 10.2148 4.73828 9.93359 4.04297 9.62109C3.35547 9.30859 2.74609 8.94531 2.21484 8.53125C1.69141 8.10938 1.27734 7.62109 0.972656 7.06641C0.675781 6.51172 0.527344 5.86719 0.527344 5.13281C0.527344 4.42188 0.683594 3.77734 0.996094 3.19922C1.30859 2.61328 1.74609 2.11328 2.30859 1.69922C2.87109 1.27734 3.53516 0.953125 4.30078 0.726562C5.07422 0.5 5.92188 0.386719 6.84375 0.386719C8.10156 0.386719 9.19922 0.613281 10.1367 1.06641C11.0742 1.51953 11.8008 2.14062 12.3164 2.92969C12.8398 3.71875 13.1016 4.62109 13.1016 5.63672H9.60938C9.60938 5.13672 9.50391 4.69922 9.29297 4.32422C9.08984 3.94141 8.77734 3.64062 8.35547 3.42188C7.94141 3.20312 7.41797 3.09375 6.78516 3.09375C6.17578 3.09375 5.66797 3.1875 5.26172 3.375C4.85547 3.55469 4.55078 3.80078 4.34766 4.11328C4.14453 4.41797 4.04297 4.76172 4.04297 5.14453C4.04297 5.43359 4.11328 5.69531 4.25391 5.92969C4.40234 6.16406 4.62109 6.38281 4.91016 6.58594C5.19922 6.78906 5.55469 6.98047 5.97656 7.16016C6.39844 7.33984 6.88672 7.51562 7.44141 7.6875C8.37109 7.96875 9.1875 8.28516 9.89062 8.63672C10.6016 8.98828 11.1953 9.38281 11.6719 9.82031C12.1484 10.2578 12.5078 10.7539 12.75 11.3086C12.9922 11.8633 13.1133 12.4922 13.1133 13.1953C13.1133 13.9375 12.9688 14.6016 12.6797 15.1875C12.3906 15.7734 11.9727 16.2695 11.4258 16.6758C10.8789 17.082 10.2266 17.3906 9.46875 17.6016C8.71094 17.8125 7.86328 17.918 6.92578 17.918C6.08203 17.918 5.25 17.8086 4.42969 17.5898C3.60938 17.3633 2.86328 17.0234 2.19141 16.5703C1.52734 16.1172 0.996094 15.5391 0.597656 14.8359C0.199219 14.1328 0 13.3008 0 12.3398H3.52734C3.52734 12.8711 3.60938 13.3203 3.77344 13.6875C3.9375 14.0547 4.16797 14.3516 4.46484 14.5781C4.76953 14.8047 5.12891 14.9688 5.54297 15.0703C5.96484 15.1719 6.42578 15.2227 6.92578 15.2227C7.53516 15.2227 8.03516 15.1367 8.42578 14.9648C8.82422 14.793 9.11719 14.5547 9.30469 14.25C9.5 13.9453 9.59766 13.6016 9.59766 13.2188ZM18.8555 5.00391V17.6836H15.4688V5.00391H18.8555ZM15.2578 1.69922C15.2578 1.20703 15.4297 0.800781 15.7734 0.480469C16.1172 0.160156 16.5781 0 17.1562 0C17.7266 0 18.1836 0.160156 18.5273 0.480469C18.8789 0.800781 19.0547 1.20703 19.0547 1.69922C19.0547 2.19141 18.8789 2.59766 18.5273 2.91797C18.1836 3.23828 17.7266 3.39844 17.1562 3.39844C16.5781 3.39844 16.1172 3.23828 15.7734 2.91797C15.4297 2.59766 15.2578 2.19141 15.2578 1.69922ZM29.6719 5.00391H32.7305V17.2617C32.7305 18.418 32.4727 19.3984 31.957 20.2031C31.4492 21.0156 30.7383 21.6289 29.8242 22.043C28.9102 22.4648 27.8477 22.6758 26.6367 22.6758C26.1055 22.6758 25.543 22.6055 24.9492 22.4648C24.3633 22.3242 23.8008 22.1055 23.2617 21.8086C22.7305 21.5117 22.2852 21.1367 21.9258 20.6836L23.4141 18.6914C23.8047 19.1445 24.2578 19.4961 24.7734 19.7461C25.2891 20.0039 25.8594 20.1328 26.4844 20.1328C27.0938 20.1328 27.6094 20.0195 28.0312 19.793C28.4531 19.5742 28.7773 19.25 29.0039 18.8203C29.2305 18.3984 29.3438 17.8867 29.3438 17.2852V7.93359L29.6719 5.00391ZM21.1406 11.4961V11.25C21.1406 10.2812 21.2578 9.40234 21.4922 8.61328C21.7344 7.81641 22.0742 7.13281 22.5117 6.5625C22.957 5.99219 23.4961 5.55078 24.1289 5.23828C24.7617 4.92578 25.4766 4.76953 26.2734 4.76953C27.1172 4.76953 27.8242 4.92578 28.3945 5.23828C28.9648 5.55078 29.4336 5.99609 29.8008 6.57422C30.168 7.14453 30.4531 7.82031 30.6562 8.60156C30.8672 9.375 31.0312 10.2227 31.1484 11.1445V11.6836C31.0312 12.5664 30.8555 13.3867 30.6211 14.1445C30.3867 14.9023 30.0781 15.5664 29.6953 16.1367C29.3125 16.6992 28.8359 17.1367 28.2656 17.4492C27.7031 17.7617 27.0312 17.918 26.25 17.918C25.4688 17.918 24.7617 17.7578 24.1289 17.4375C23.5039 17.1172 22.9688 16.668 22.5234 16.0898C22.0781 15.5117 21.7344 14.832 21.4922 14.0508C21.2578 13.2695 21.1406 12.418 21.1406 11.4961ZM24.5156 11.25V11.4961C24.5156 12.0195 24.5664 12.5078 24.668 12.9609C24.7695 13.4141 24.9258 13.8164 25.1367 14.168C25.3555 14.5117 25.625 14.7812 25.9453 14.9766C26.2734 15.1641 26.6602 15.2578 27.1055 15.2578C27.7227 15.2578 28.2266 15.1289 28.6172 14.8711C29.0078 14.6055 29.3008 14.2422 29.4961 13.7812C29.6914 13.3203 29.8047 12.7891 29.8359 12.1875V10.6523C29.8203 10.1602 29.7539 9.71875 29.6367 9.32812C29.5195 8.92969 29.3555 8.58984 29.1445 8.30859C28.9336 8.02734 28.6602 7.80859 28.3242 7.65234C27.9883 7.49609 27.5898 7.41797 27.1289 7.41797C26.6836 7.41797 26.2969 7.51953 25.9688 7.72266C25.6484 7.91797 25.3789 8.1875 25.1602 8.53125C24.9492 8.875 24.7891 9.28125 24.6797 9.75C24.5703 10.2109 24.5156 10.7109 24.5156 11.25ZM38.6602 7.71094V17.6836H35.2852V5.00391H38.4492L38.6602 7.71094ZM38.168 10.8984H37.2539C37.2539 9.96094 37.375 9.11719 37.6172 8.36719C37.8594 7.60938 38.1992 6.96484 38.6367 6.43359C39.0742 5.89453 39.5938 5.48438 40.1953 5.20312C40.8047 4.91406 41.4844 4.76953 42.2344 4.76953C42.8281 4.76953 43.3711 4.85547 43.8633 5.02734C44.3555 5.19922 44.7773 5.47266 45.1289 5.84766C45.4883 6.22266 45.7617 6.71875 45.9492 7.33594C46.1445 7.95312 46.2422 8.70703 46.2422 9.59766V17.6836H42.8438V9.58594C42.8438 9.02344 42.7656 8.58594 42.6094 8.27344C42.4531 7.96094 42.2227 7.74219 41.918 7.61719C41.6211 7.48438 41.2539 7.41797 40.8164 7.41797C40.3633 7.41797 39.9688 7.50781 39.6328 7.6875C39.3047 7.86719 39.0312 8.11719 38.8125 8.4375C38.6016 8.75 38.4414 9.11719 38.332 9.53906C38.2227 9.96094 38.168 10.4141 38.168 10.8984ZM64.418 0.621094H67.9219V11.8945C67.9219 13.207 67.6406 14.3125 67.0781 15.2109C66.5234 16.1094 65.7539 16.7852 64.7695 17.2383C63.793 17.6914 62.668 17.918 61.3945 17.918C60.1211 17.918 58.9883 17.6914 57.9961 17.2383C57.0117 16.7852 56.2383 16.1094 55.6758 15.2109C55.1211 14.3125 54.8438 13.207 54.8438 11.8945V0.621094H58.3594V11.8945C58.3594 12.6602 58.4805 13.2852 58.7227 13.7695C58.9648 14.2539 59.3125 14.6094 59.7656 14.8359C60.2266 15.0625 60.7695 15.1758 61.3945 15.1758C62.0352 15.1758 62.5781 15.0625 63.0234 14.8359C63.4766 14.6094 63.8203 14.2539 64.0547 13.7695C64.2969 13.2852 64.418 12.6602 64.418 11.8945V0.621094ZM73.9805 7.44141V22.5586H70.6055V5.00391H73.7344L73.9805 7.44141ZM82.0078 11.2031V11.4492C82.0078 12.3711 81.8984 13.2266 81.6797 14.0156C81.4688 14.8047 81.1562 15.4922 80.7422 16.0781C80.3281 16.6562 79.8125 17.1094 79.1953 17.4375C78.5859 17.7578 77.8828 17.918 77.0859 17.918C76.3125 17.918 75.6406 17.7617 75.0703 17.4492C74.5 17.1367 74.0195 16.6992 73.6289 16.1367C73.2461 15.5664 72.9375 14.9062 72.7031 14.1562C72.4688 13.4062 72.2891 12.6016 72.1641 11.7422V11.0977C72.2891 10.1758 72.4688 9.33203 72.7031 8.56641C72.9375 7.79297 73.2461 7.125 73.6289 6.5625C74.0195 5.99219 74.4961 5.55078 75.0586 5.23828C75.6289 4.92578 76.2969 4.76953 77.0625 4.76953C77.8672 4.76953 78.5742 4.92188 79.1836 5.22656C79.8008 5.53125 80.3164 5.96875 80.7305 6.53906C81.1523 7.10938 81.4688 7.78906 81.6797 8.57812C81.8984 9.36719 82.0078 10.2422 82.0078 11.2031ZM78.6211 11.4492V11.2031C78.6211 10.6641 78.5742 10.168 78.4805 9.71484C78.3945 9.25391 78.2539 8.85156 78.0586 8.50781C77.8711 8.16406 77.6211 7.89844 77.3086 7.71094C77.0039 7.51562 76.6328 7.41797 76.1953 7.41797C75.7344 7.41797 75.3398 7.49219 75.0117 7.64062C74.6914 7.78906 74.4297 8.00391 74.2266 8.28516C74.0234 8.56641 73.8711 8.90234 73.7695 9.29297C73.668 9.68359 73.6055 10.125 73.582 10.6172V12.2461C73.6211 12.8242 73.7305 13.3438 73.9102 13.8047C74.0898 14.2578 74.3672 14.6172 74.7422 14.8828C75.1172 15.1484 75.6094 15.2812 76.2188 15.2812C76.6641 15.2812 77.0391 15.1836 77.3438 14.9883C77.6484 14.7852 77.8945 14.5078 78.082 14.1562C78.2773 13.8047 78.4141 13.3984 78.4922 12.9375C78.5781 12.4766 78.6211 11.9805 78.6211 11.4492Z" fill="#141414"/>
</svg>
