<svg width="48" height="48" viewBox="0 0 48 48" fill="none" xmlns="http://www.w3.org/2000/svg">
<circle cx="24" cy="24" r="24" fill="#DFEDE3"/>
<rect width="24" height="24" transform="translate(12 12)" fill="#DFEDE3"/>
<path d="M16.2746 28.2031C15.6469 29.7681 15.25 31.5969 15.25 33.7491C15.25 34.3014 15.6977 34.7491 16.25 34.7491C16.8023 34.7491 17.25 34.3014 17.25 33.7491C17.25 32.2157 17.4785 30.8745 17.8624 29.6915C17.618 29.7143 17.3704 29.7331 17.1197 29.7478C16.7121 29.7717 16.3603 29.4652 16.3281 29.0583C16.3052 28.7689 16.2874 28.4838 16.2746 28.2031Z" fill="#141414"/>
<path d="M32.1003 13.4847C28.4189 12.8528 24.2198 13.4452 21.0485 15.893C17.9862 18.2567 16.004 22.2547 16.2746 28.2038C17.6848 24.688 20.2596 22.504 22.1146 20.9776C22.5411 20.6267 23.1713 20.6879 23.5222 21.1144C23.8731 21.5409 23.8119 22.171 23.3854 22.522C21.4318 24.1295 18.9839 26.2362 17.8624 29.6922C21.4425 29.3584 24.3484 28.165 26.8747 26.3399L26.9227 26.3052C27.4715 25.9088 27.9621 25.5544 28.3176 25.1826C28.7189 24.7629 28.979 24.293 29.0511 23.6709C29.1572 22.756 28.7081 22.0029 28.2619 21.4566C28.1428 21.3108 28.0171 21.1715 27.8915 21.0397C29.2645 20.6614 30.426 20.1015 31.2738 19.2166C32.4192 18.0211 32.873 16.3638 32.7216 14.1723C32.6978 13.8272 32.4412 13.5432 32.1003 13.4847Z" fill="#141414"/>
</svg>
