<svg width="59" height="24" viewBox="0 0 59 24" fill="none" xmlns="http://www.w3.org/2000/svg">
<path d="M18.0714 10.0641C18.0524 11.5597 19.4043 12.3944 20.4227 12.8907C21.469 13.3999 21.8205 13.7263 21.8165 14.1816C21.8085 14.8785 20.9818 15.1861 20.208 15.198C18.8581 15.219 18.0733 14.8336 17.4493 14.5421L16.9631 16.8175C17.5891 17.1061 18.7483 17.3577 19.9504 17.3687C22.772 17.3687 24.6181 15.9758 24.6281 13.8162C24.6391 11.0755 20.837 10.9237 20.863 9.69865C20.872 9.32723 21.2264 8.93085 22.0032 8.83001C22.3876 8.77909 23.4489 8.74015 24.6521 9.29428L25.1243 7.09272C24.4773 6.85709 23.6456 6.63144 22.6102 6.63144C19.9544 6.63144 18.0863 8.04324 18.0714 10.0641ZM29.6622 6.82115C29.147 6.82115 28.7127 7.12168 28.519 7.58296L24.4883 17.2069H27.3079L27.869 15.6563H31.3146L31.6401 17.2069H34.1252L31.9566 6.82115H29.6622ZM30.0566 9.62676L30.8703 13.5267H28.6418L30.0566 9.62676ZM14.6527 6.82115L12.4302 17.2069H15.117L17.3385 6.82115H14.6527ZM10.6779 6.82115L7.88129 13.8901L6.75006 7.87949C6.61726 7.20854 6.09308 6.82115 5.51099 6.82115H0.939144L0.875244 7.12268C1.81378 7.32636 2.88011 7.65484 3.5261 8.00629C3.92148 8.22096 4.0343 8.40867 4.1641 8.91887L6.30675 17.2069H9.14631L13.4995 6.82115H10.6779Z" fill="url(#paint0_linear_1_44021)"/>
<path d="M45 17.0003C44.744 17.0003 44.488 16.9023 44.293 16.7073C43.902 16.3163 43.902 15.6842 44.293 15.2933L47.586 12.0003L44.293 8.70731C43.902 8.31631 43.902 7.68425 44.293 7.29325C44.684 6.90225 45.3161 6.90225 45.7071 7.29325L49.7071 11.2933C50.0981 11.6842 50.0981 12.3163 49.7071 12.7073L45.7071 16.7073C45.5121 16.9023 45.256 17.0003 45 17.0003Z" fill="#25314C"/>
<defs>
<linearGradient id="paint0_linear_1_44021" x1="16.1617" y1="17.5841" x2="16.4724" y2="6.55678" gradientUnits="userSpaceOnUse">
<stop stop-color="#222357"/>
<stop offset="1" stop-color="#254AA5"/>
</linearGradient>
</defs>
</svg>
